<?xml version="1.0" encoding="UTF-8"?>
<svg id="Layer_1" xmlns="http://www.w3.org/2000/svg" version="1.1" viewBox="0 0 288 288">
  <!-- Generator: Adobe Illustrator 29.6.0, SVG Export Plug-In . SVG Version: 2.1.1 Build 207)  -->
  <defs>
    <style>
      .st0 {
        fill: #fd4c61;
      }
    </style>
  </defs>
  <path class="st0" d="M242.92,112.27l-67.19-67.15c-8.48-8.47-19.75-13.15-31.73-13.15s-23.27,4.67-31.73,13.15L45.08,112.27c-8.48,8.48-13.14,19.74-13.14,31.73s4.67,23.25,13.14,31.73l67.19,67.16c8.48,8.47,19.75,13.14,31.73,13.14s23.26-4.67,31.73-13.15l67.19-67.15c8.48-8.47,13.15-19.74,13.15-31.73s-4.67-23.25-13.15-31.73ZM225.11,157.91l-67.19,67.16c-7.45,7.43-20.42,7.43-27.84,0l-67.19-67.16c-3.72-3.71-5.77-8.66-5.77-13.91s2.05-10.2,5.77-13.91l67.19-67.16c3.72-3.71,8.66-5.77,13.92-5.77s10.2,2.05,13.92,5.77l67.19,67.16c3.72,3.71,5.76,8.66,5.76,13.91s-2.03,10.2-5.76,13.91Z"/>
  <path class="st0" d="M157.64,126.89c-8.69-3.59-18.59-3.6-27.29.01-4.36,1.8-8.25,4.4-11.55,7.72l-23.97,23.97,17.8,17.81,24-23.98c.96-.97,2.12-1.73,3.39-2.26,2.54-1.06,5.47-1.05,7.98,0,1.28.53,2.43,1.3,3.41,2.28l23.98,23.97,17.8-17.81-23.95-23.97c-3.33-3.33-7.22-5.92-11.59-7.74Z"/>
</svg>